<mxfile host="drawio-plugin" modified="2024-09-05T18:31:26.629Z" agent="5.0 (Macintosh; Intel Mac OS X 10_15_7) AppleWebKit/537.36 (KHTML, like Gecko) Chrome/104.0.5112.102 Safari/537.36" etag="41iLg0bppuosJcZVnwXY" version="20.5.3" type="embed"><diagram name="Page-1" id="Y-qtSBzgZtqOqkQaNCEQ"><mxGraphModel dx="854" dy="369" grid="1" gridSize="10" guides="1" tooltips="1" connect="1" arrows="1" fold="1" page="1" pageScale="1" pageWidth="827" pageHeight="1169" math="0" shadow="0"><root><mxCell id="0"/><mxCell id="1" parent="0"/><mxCell id="6-Fc7FL_gjs3nGVKd17d-5" value="User" style="ellipse;whiteSpace=wrap;html=1;" parent="1" vertex="1"><mxGeometry x="280" y="170" width="120" height="80" as="geometry"/></mxCell><mxCell id="6-Fc7FL_gjs3nGVKd17d-6" value="Comments" style="ellipse;whiteSpace=wrap;html=1;" parent="1" vertex="1"><mxGeometry x="570" y="300" width="120" height="80" as="geometry"/></mxCell><mxCell id="6-Fc7FL_gjs3nGVKd17d-7" value="Question" style="ellipse;whiteSpace=wrap;html=1;" parent="1" vertex="1"><mxGeometry x="400" y="20" width="120" height="80" as="geometry"/></mxCell><mxCell id="6-Fc7FL_gjs3nGVKd17d-8" value="Answers" style="ellipse;whiteSpace=wrap;html=1;" parent="1" vertex="1"><mxGeometry x="570" y="170" width="120" height="80" as="geometry"/></mxCell><mxCell id="6-Fc7FL_gjs3nGVKd17d-17" value="" style="endArrow=none;html=1;rounded=0;" parent="1" edge="1"><mxGeometry width="50" height="50" relative="1" as="geometry"><mxPoint x="340" y="170" as="sourcePoint"/><mxPoint x="460" y="100" as="targetPoint"/></mxGeometry></mxCell><mxCell id="6-Fc7FL_gjs3nGVKd17d-18" value="" style="endArrow=none;html=1;rounded=0;entryX=0;entryY=0.5;entryDx=0;entryDy=0;exitX=1;exitY=0.5;exitDx=0;exitDy=0;" parent="1" source="6-Fc7FL_gjs3nGVKd17d-5" target="6-Fc7FL_gjs3nGVKd17d-8" edge="1"><mxGeometry width="50" height="50" relative="1" as="geometry"><mxPoint x="350" y="260" as="sourcePoint"/><mxPoint x="478" y="422" as="targetPoint"/></mxGeometry></mxCell><mxCell id="6-Fc7FL_gjs3nGVKd17d-19" value="" style="endArrow=none;html=1;rounded=0;entryX=0.5;entryY=1;entryDx=0;entryDy=0;" parent="1" source="6-Fc7FL_gjs3nGVKd17d-6" target="6-Fc7FL_gjs3nGVKd17d-8" edge="1"><mxGeometry width="50" height="50" relative="1" as="geometry"><mxPoint x="410" y="220" as="sourcePoint"/><mxPoint x="580" y="220" as="targetPoint"/></mxGeometry></mxCell><mxCell id="6-Fc7FL_gjs3nGVKd17d-20" value="" style="endArrow=none;html=1;rounded=0;entryX=0.5;entryY=0;entryDx=0;entryDy=0;" parent="1" target="6-Fc7FL_gjs3nGVKd17d-6" edge="1"><mxGeometry width="50" height="50" relative="1" as="geometry"><mxPoint x="400" y="210" as="sourcePoint"/><mxPoint x="580" y="220" as="targetPoint"/></mxGeometry></mxCell><mxCell id="6-Fc7FL_gjs3nGVKd17d-22" value="" style="endArrow=none;html=1;rounded=0;entryX=0;entryY=0.5;entryDx=0;entryDy=0;exitX=1;exitY=0.5;exitDx=0;exitDy=0;" parent="1" edge="1"><mxGeometry width="50" height="50" relative="1" as="geometry"><mxPoint x="400" y="210" as="sourcePoint"/><mxPoint x="570" y="210" as="targetPoint"/></mxGeometry></mxCell><mxCell id="6-Fc7FL_gjs3nGVKd17d-25" value="1..1" style="text;html=1;align=center;verticalAlign=middle;resizable=0;points=[];autosize=1;strokeColor=none;fillColor=none;" parent="1" vertex="1"><mxGeometry x="310" y="150" width="40" height="30" as="geometry"/></mxCell><mxCell id="6-Fc7FL_gjs3nGVKd17d-26" value="*..0" style="text;html=1;align=center;verticalAlign=middle;resizable=0;points=[];autosize=1;strokeColor=none;fillColor=none;" parent="1" vertex="1"><mxGeometry x="414" y="90" width="40" height="30" as="geometry"/></mxCell><mxCell id="6-Fc7FL_gjs3nGVKd17d-27" value="1..1" style="text;html=1;align=center;verticalAlign=middle;resizable=0;points=[];autosize=1;strokeColor=none;fillColor=none;" parent="1" vertex="1"><mxGeometry x="400" y="188" width="40" height="30" as="geometry"/></mxCell><mxCell id="6-Fc7FL_gjs3nGVKd17d-28" value="0..*" style="text;html=1;align=center;verticalAlign=middle;resizable=0;points=[];autosize=1;strokeColor=none;fillColor=none;" parent="1" vertex="1"><mxGeometry x="530" y="188" width="40" height="30" as="geometry"/></mxCell><mxCell id="6-Fc7FL_gjs3nGVKd17d-29" value="1..1" style="text;html=1;align=center;verticalAlign=middle;resizable=0;points=[];autosize=1;strokeColor=none;fillColor=none;" parent="1" vertex="1"><mxGeometry x="630" y="240" width="40" height="30" as="geometry"/></mxCell><mxCell id="6-Fc7FL_gjs3nGVKd17d-30" value="0..*" style="text;html=1;align=center;verticalAlign=middle;resizable=0;points=[];autosize=1;strokeColor=none;fillColor=none;" parent="1" vertex="1"><mxGeometry x="620" y="280" width="40" height="30" as="geometry"/></mxCell><mxCell id="6-Fc7FL_gjs3nGVKd17d-31" value="1..1" style="text;html=1;align=center;verticalAlign=middle;resizable=0;points=[];autosize=1;strokeColor=none;fillColor=none;" parent="1" vertex="1"><mxGeometry x="394" y="210" width="40" height="30" as="geometry"/></mxCell><mxCell id="6-Fc7FL_gjs3nGVKd17d-32" value="0..*" style="text;html=1;align=center;verticalAlign=middle;resizable=0;points=[];autosize=1;strokeColor=none;fillColor=none;" parent="1" vertex="1"><mxGeometry x="570" y="280" width="40" height="30" as="geometry"/></mxCell><mxCell id="2" value="QuestionsLikes" style="ellipse;whiteSpace=wrap;html=1;" parent="1" vertex="1"><mxGeometry x="110" y="20" width="120" height="80" as="geometry"/></mxCell><mxCell id="4" value="0..*" style="text;html=1;align=center;verticalAlign=middle;resizable=0;points=[];autosize=1;strokeColor=none;fillColor=none;" parent="1" vertex="1"><mxGeometry x="160" y="110" width="40" height="30" as="geometry"/></mxCell><mxCell id="5" value="1..1" style="text;html=1;align=center;verticalAlign=middle;resizable=0;points=[];autosize=1;strokeColor=none;fillColor=none;" parent="1" vertex="1"><mxGeometry x="240" y="188" width="40" height="30" as="geometry"/></mxCell><mxCell id="6" value="" style="endArrow=none;html=1;rounded=0;exitX=0.5;exitY=0;exitDx=0;exitDy=0;" edge="1" parent="1" source="6-Fc7FL_gjs3nGVKd17d-8"><mxGeometry width="50" height="50" relative="1" as="geometry"><mxPoint x="350" y="180" as="sourcePoint"/><mxPoint x="460" y="100" as="targetPoint"/></mxGeometry></mxCell><mxCell id="9" value="1..1" style="text;html=1;align=center;verticalAlign=middle;resizable=0;points=[];autosize=1;strokeColor=none;fillColor=none;" vertex="1" parent="1"><mxGeometry x="360" y="30" width="40" height="30" as="geometry"/></mxCell><mxCell id="10" value="0..*" style="text;html=1;align=center;verticalAlign=middle;resizable=0;points=[];autosize=1;strokeColor=none;fillColor=none;" vertex="1" parent="1"><mxGeometry x="220" y="30" width="40" height="30" as="geometry"/></mxCell><mxCell id="11" value="" style="endArrow=none;html=1;rounded=0;exitX=0;exitY=0.5;exitDx=0;exitDy=0;entryX=0.5;entryY=1;entryDx=0;entryDy=0;" edge="1" parent="1" source="6-Fc7FL_gjs3nGVKd17d-5" target="2"><mxGeometry width="50" height="50" relative="1" as="geometry"><mxPoint x="350" y="180" as="sourcePoint"/><mxPoint x="470" y="110" as="targetPoint"/></mxGeometry></mxCell><mxCell id="12" value="" style="endArrow=none;html=1;rounded=0;exitX=1;exitY=0.5;exitDx=0;exitDy=0;entryX=0;entryY=0.5;entryDx=0;entryDy=0;" edge="1" parent="1" source="2" target="6-Fc7FL_gjs3nGVKd17d-7"><mxGeometry width="50" height="50" relative="1" as="geometry"><mxPoint x="360" y="190" as="sourcePoint"/><mxPoint x="480" y="120" as="targetPoint"/></mxGeometry></mxCell><mxCell id="13" value="Roles" style="ellipse;whiteSpace=wrap;html=1;" vertex="1" parent="1"><mxGeometry x="280" y="310" width="120" height="80" as="geometry"/></mxCell><mxCell id="14" value="" style="endArrow=none;html=1;rounded=0;exitX=0.5;exitY=1;exitDx=0;exitDy=0;entryX=0.5;entryY=0;entryDx=0;entryDy=0;" edge="1" parent="1" source="6-Fc7FL_gjs3nGVKd17d-5" target="13"><mxGeometry width="50" height="50" relative="1" as="geometry"><mxPoint x="290" y="220" as="sourcePoint"/><mxPoint x="180" y="110" as="targetPoint"/></mxGeometry></mxCell><mxCell id="15" value="1..*" style="text;html=1;align=center;verticalAlign=middle;resizable=0;points=[];autosize=1;strokeColor=none;fillColor=none;" vertex="1" parent="1"><mxGeometry x="300" y="240" width="40" height="30" as="geometry"/></mxCell><mxCell id="16" value="1..*" style="text;html=1;align=center;verticalAlign=middle;resizable=0;points=[];autosize=1;strokeColor=none;fillColor=none;" vertex="1" parent="1"><mxGeometry x="300" y="290" width="40" height="30" as="geometry"/></mxCell></root></mxGraphModel></diagram></mxfile>